<?xml version="1.0" standalone="no"?>
<!DOCTYPE svg PUBLIC "-//W3C//DTD SVG 20010904//EN"
 "http://www.w3.org/TR/2001/REC-SVG-20010904/DTD/svg10.dtd">
<svg version="1.0" xmlns="http://www.w3.org/2000/svg"
 width="500.000000pt" height="500.000000pt" viewBox="0 0 500.000000 500.000000"
 preserveAspectRatio="xMidYMid meet">
<metadata>
Created by potrace 1.14, written by Peter Selinger 2001-2017
</metadata>
<g transform="translate(0.000000,500.000000) scale(0.100000,-0.100000)"
fill="#000000" stroke="none">
<path d="M0 2500 l0 -2500 2500 0 2500 0 0 2500 0 2500 -2500 0 -2500 0 0
-2500z m2653 1066 c86 -113 218 -278 294 -367 144 -170 496 -531 690 -707
l112 -102 -320 0 -321 0 -247 248 c-135 136 -273 280 -306 320 l-60 72 -75
-82 c-156 -171 -297 -317 -422 -435 l-130 -123 -316 0 -317 1 35 31 c476 425
819 795 1097 1183 65 90 121 165 124 165 3 0 76 -92 162 -204z m181 -1401
c208 -255 551 -611 850 -882 l69 -63 -323 0 -322 0 -205 203 c-113 111 -252
255 -309 319 l-103 117 -88 -102 c-48 -56 -186 -200 -307 -319 l-219 -218
-319 0 -320 0 251 246 c386 379 614 633 879 982 l124 162 150 -198 c83 -108
169 -219 192 -247z"/>
</g>
</svg>
